<?plantuml 1.2026.2beta2?><svg xmlns="http://www.w3.org/2000/svg" xmlns:xlink="http://www.w3.org/1999/xlink" contentStyleType="text/css" data-diagram-type="DESCRIPTION" height="910px" preserveAspectRatio="none" style="width:1291px;height:910px;background:#FEFEFE;" version="1.1" viewBox="0 0 1291 910" width="1291px" zoomAndPan="magnify"><title>&#26085;&#26412;&#35486;&#12497;&#12540;&#12488;&#12490;&#12540; - &#12471;&#12473;&#12486;&#12512;&#12450;&#12540;&#12461;&#12486;&#12463;&#12481;&#12515;</title><defs/><g><rect fill="#FEFEFE" height="910" style="stroke:none;stroke-width:1;" width="1291" x="0" y="0"/><g class="title" data-source-line="6"><text fill="#000000" font-family="Verdana" font-size="22" font-weight="bold" lengthAdjust="spacing" textLength="442.4506" x="419.9773" y="35.4209">&#26085;&#26412;&#35486;&#12497;&#12540;&#12488;&#12490;&#12540; - &#12471;&#12473;&#12486;&#12512;&#12450;&#12540;&#12461;&#12486;&#12463;&#12481;&#12515;</text></g><!--cluster client--><g class="cluster" data-qualified-name="client" data-source-line="8" id="ent0002"><path d="M120.5,57.6094 L199.5001,57.6094 A3.75,3.75 0 0 1 202.0001,60.1094 L209.0001,78.7422 L319.5,78.7422 A2.5,2.5 0 0 1 322,81.2422 L322,155.3794 A2.5,2.5 0 0 1 319.5,157.8794 L120.5,157.8794 A2.5,2.5 0 0 1 118,155.3794 L118,60.1094 A2.5,2.5 0 0 1 120.5,57.6094" fill="#E3F2FD" style="stroke:#000000;stroke-width:1;"/><line style="stroke:#000000;stroke-width:1;" x1="118" x2="209.0001" y1="78.7422" y2="78.7422"/><text fill="#000000" font-family="Verdana" font-size="13" font-weight="bold" lengthAdjust="spacing" textLength="78.0001" x="122" y="71.6763">&#12463;&#12521;&#12452;&#12450;&#12531;&#12488;</text></g><!--cluster cloudrun--><g class="cluster" data-qualified-name="cloudrun" data-source-line="12" id="ent0004"><path d="M13.5,206.8794 L89.0342,206.8794 A3.75,3.75 0 0 1 91.5342,209.3794 L98.5342,228.0122 L372.5,228.0122 A2.5,2.5 0 0 1 375,230.5122 L375,540.3494 A2.5,2.5 0 0 1 372.5,542.8494 L13.5,542.8494 A2.5,2.5 0 0 1 11,540.3494 L11,209.3794 A2.5,2.5 0 0 1 13.5,206.8794" fill="#E8F5E9" style="stroke:#000000;stroke-width:1;"/><line style="stroke:#000000;stroke-width:1;" x1="11" x2="98.5342" y1="228.0122" y2="228.0122"/><text fill="#000000" font-family="Verdana" font-size="13" font-weight="bold" lengthAdjust="spacing" textLength="74.5342" x="15" y="220.9463">Cloud Run</text></g><!--cluster app--><g class="cluster" data-qualified-name="cloudrun.app" data-source-line="13" id="ent0005"><path d="M37.5,248.8794 L198.4547,248.8794 A3.75,3.75 0 0 1 200.9547,251.3794 L207.9547,270.0122 L348.5,270.0122 A2.5,2.5 0 0 1 351,272.5122 L351,516.3494 A2.5,2.5 0 0 1 348.5,518.8494 L37.5,518.8494 A2.5,2.5 0 0 1 35,516.3494 L35,251.3794 A2.5,2.5 0 0 1 37.5,248.8794" fill="#FFFFFF" style="stroke:#000000;stroke-width:1;"/><line style="stroke:#000000;stroke-width:1;" x1="35" x2="207.9547" y1="270.0122" y2="270.0122"/><text fill="#000000" font-family="Verdana" font-size="13" font-weight="bold" lengthAdjust="spacing" textLength="159.9547" x="39" y="262.9463">Next.js &#12450;&#12503;&#12522;&#12465;&#12540;&#12471;&#12519;&#12531;</text></g><!--cluster ai--><g class="cluster" data-qualified-name="ai" data-source-line="20" id="ent0009"><path d="M401.5,426.1494 L575.5753,426.1494 A3.75,3.75 0 0 1 578.0753,428.6494 L585.0753,447.2822 L958.5,447.2822 A2.5,2.5 0 0 1 961,449.7822 L961,523.9094 A2.5,2.5 0 0 1 958.5,526.4094 L401.5,526.4094 A2.5,2.5 0 0 1 399,523.9094 L399,428.6494 A2.5,2.5 0 0 1 401.5,426.1494" fill="#FFF3E0" style="stroke:#000000;stroke-width:1;"/><line style="stroke:#000000;stroke-width:1;" x1="399" x2="585.0753" y1="447.2822" y2="447.2822"/><text fill="#000000" font-family="Verdana" font-size="13" font-weight="bold" lengthAdjust="spacing" textLength="173.0753" x="403" y="440.2163">Google Cloud AI &#12469;&#12540;&#12499;&#12473;</text></g><!--cluster data--><g class="cluster" data-qualified-name="data" data-source-line="26" id="ent0013"><path d="M674.5,591.8494 L727.5001,591.8494 A3.75,3.75 0 0 1 730.0001,594.3494 L737.0001,612.9822 L1005.5,612.9822 A2.5,2.5 0 0 1 1008,615.4822 L1008,901.3094 A2.5,2.5 0 0 1 1005.5,903.8094 L674.5,903.8094 A2.5,2.5 0 0 1 672,901.3094 L672,594.3494 A2.5,2.5 0 0 1 674.5,591.8494" fill="#F3E5F5" style="stroke:#000000;stroke-width:1;"/><line style="stroke:#000000;stroke-width:1;" x1="672" x2="737.0001" y1="612.9822" y2="612.9822"/><text fill="#000000" font-family="Verdana" font-size="13" font-weight="bold" lengthAdjust="spacing" textLength="52.0001" x="676" y="605.9163">&#12487;&#12540;&#12479;&#23652;</text></g><!--cluster firestore--><g class="cluster" data-qualified-name="data.firestore" data-source-line="27" id="ent0014"><path d="M704,651.8494 C704,641.8494 840,641.8494 840,641.8494 C840,641.8494 976,641.8494 976,651.8494 L976,861.8094 C976,871.8094 840,871.8094 840,871.8094 C840,871.8094 704,871.8094 704,861.8094 L704,651.8494" fill="#FFFFFF" style="stroke:#000000;stroke-width:1;"/><path d="M704,651.8494 C704,661.8494 840,661.8494 840,661.8494 C840,661.8494 976,661.8494 976,651.8494" fill="none" style="stroke:#000000;stroke-width:1;"/><text fill="#000000" font-family="Verdana" font-size="13" font-weight="bold" lengthAdjust="spacing" textLength="66.6758" x="806.6621" y="675.9163">Firestore</text></g><!--entity browser--><g class="entity" data-qualified-name="client.browser" data-source-line="9" id="ent0003"><rect fill="#FFFFFF" height="50.2656" rx="2.5" ry="2.5" style="stroke:#000000;stroke-width:1;" width="172.9214" x="133.54" y="91.6094"/><text fill="#000000" font-family="Verdana" font-size="13" lengthAdjust="spacing" textLength="52.0001" x="143.54" y="113.6763">&#12502;&#12521;&#12454;&#12470;</text><text fill="#000000" font-family="Verdana" font-size="13" lengthAdjust="spacing" textLength="152.9214" x="143.54" y="128.8091">(React 19 + Next.js 16)</text></g><!--entity approuter--><g class="entity" data-qualified-name="cloudrun.app.approuter" data-source-line="14" id="ent0006"><rect fill="#FFFFFF" height="50.2656" rx="2.5" ry="2.5" style="stroke:#000000;stroke-width:1;" width="159.1533" x="51.42" y="282.8794"/><text fill="#000000" font-family="Verdana" font-size="13" lengthAdjust="spacing" textLength="73.1948" x="61.42" y="304.9463">App Router</text><text fill="#000000" font-family="Verdana" font-size="13" lengthAdjust="spacing" textLength="139.1533" x="61.42" y="320.0791">(Server Components)</text></g><!--entity api--><g class="entity" data-qualified-name="cloudrun.app.api" data-source-line="15" id="ent0007"><rect fill="#FFFFFF" height="35.1328" rx="2.5" ry="2.5" style="stroke:#000000;stroke-width:1;" width="89.7925" x="245.1" y="290.4494"/><text fill="#000000" font-family="Verdana" font-size="13" lengthAdjust="spacing" textLength="69.7925" x="255.1" y="312.5163">API Routes</text></g><!--entity actions--><g class="entity" data-qualified-name="cloudrun.app.actions" data-source-line="16" id="ent0008"><rect fill="#FFFFFF" height="35.1328" rx="2.5" ry="2.5" style="stroke:#000000;stroke-width:1;" width="114.4785" x="174.76" y="467.7094"/><text fill="#000000" font-family="Verdana" font-size="13" lengthAdjust="spacing" textLength="94.4785" x="184.76" y="489.7763">Server Actions</text></g><!--entity vertexai--><g class="entity" data-qualified-name="ai.vertexai" data-source-line="21" id="ent0010"><rect fill="#FFFFFF" height="50.2656" rx="2.5" ry="2.5" style="stroke:#000000;stroke-width:1;" width="139.3486" x="415.33" y="460.1494"/><text fill="#000000" font-family="Verdana" font-size="13" lengthAdjust="spacing" textLength="59.8838" x="425.33" y="482.2163">Vertex AI</text><text fill="#000000" font-family="Verdana" font-size="13" lengthAdjust="spacing" textLength="119.3486" x="425.33" y="497.3491">(Gemini 2.5 Flash)</text></g><!--entity stt--><g class="entity" data-qualified-name="ai.stt" data-source-line="22" id="ent0011"><rect fill="#FFFFFF" height="35.1328" rx="2.5" ry="2.5" style="stroke:#000000;stroke-width:1;" width="160.3149" x="589.84" y="467.7094"/><text fill="#000000" font-family="Verdana" font-size="13" lengthAdjust="spacing" textLength="140.3149" x="599.84" y="489.7763">Cloud Speech-to-Text</text></g><!--entity tts--><g class="entity" data-qualified-name="ai.tts" data-source-line="23" id="ent0012"><rect fill="#FFFFFF" height="35.1328" rx="2.5" ry="2.5" style="stroke:#000000;stroke-width:1;" width="160.3149" x="784.84" y="467.7094"/><text fill="#000000" font-family="Verdana" font-size="13" lengthAdjust="spacing" textLength="140.3149" x="794.84" y="489.7763">Cloud Text-to-Speech</text></g><!--entity Users--><g class="entity" data-qualified-name="data.firestore.Users" data-source-line="28" id="ent0015"><rect fill="#FFFFFF" height="35.1328" rx="2.5" ry="2.5" style="stroke:#000000;stroke-width:1;" width="56.4038" x="727.8" y="698.8494"/><text fill="#000000" font-family="Verdana" font-size="13" lengthAdjust="spacing" textLength="36.4038" x="737.8" y="720.9163">Users</text></g><!--entity Conversations--><g class="entity" data-qualified-name="data.firestore.Conversations" data-source-line="29" id="ent0016"><rect fill="#FFFFFF" height="35.1328" rx="2.5" ry="2.5" style="stroke:#000000;stroke-width:1;" width="112.7202" x="819.64" y="698.8494"/><text fill="#000000" font-family="Verdana" font-size="13" lengthAdjust="spacing" textLength="92.7202" x="829.64" y="720.9163">Conversations</text></g><!--entity Analyses--><g class="entity" data-qualified-name="data.firestore.Analyses" data-source-line="30" id="ent0017"><rect fill="#FFFFFF" height="35.1328" rx="2.5" ry="2.5" style="stroke:#000000;stroke-width:1;" width="77.9478" x="728.03" y="812.6794"/><text fill="#000000" font-family="Verdana" font-size="13" lengthAdjust="spacing" textLength="57.9478" x="738.03" y="834.7463">Analyses</text></g><!--entity Materials--><g class="entity" data-qualified-name="data.firestore.Materials" data-source-line="31" id="ent0018"><rect fill="#FFFFFF" height="35.1328" rx="2.5" ry="2.5" style="stroke:#000000;stroke-width:1;" width="79.5854" x="841.21" y="812.6794"/><text fill="#000000" font-family="Verdana" font-size="13" lengthAdjust="spacing" textLength="59.5854" x="851.21" y="834.7463">Materials</text></g><g class="entity" data-qualified-name="GMN27" data-source-line="47" id="ent0028"><path d="M1129.59,450.0094 L1129.59,520.5406 L1284.4051,520.5406 L1284.4051,460.0094 L1274.4051,450.0094 L1129.59,450.0094" fill="#FFFFFF" style="stroke:#000000;stroke-width:1;"/><path d="M1274.4051,450.0094 L1274.4051,460.0094 L1284.4051,460.0094 L1274.4051,450.0094" fill="#FFFFFF" style="stroke:#000000;stroke-width:1;"/><text fill="#000000" font-family="Verdana" font-size="13" lengthAdjust="spacing" textLength="133.8151" x="1135.59" y="467.0763">- &#20250;&#35441; AI &#12456;&#12540;&#12472;&#12455;&#12531;&#12488;</text><text fill="#000000" font-family="Verdana" font-size="13" lengthAdjust="spacing" textLength="99.8233" x="1135.59" y="482.2091">- &#12456;&#12521;&#12540;&#33258;&#21205;&#20998;&#26512;</text><text fill="#000000" font-family="Verdana" font-size="13" lengthAdjust="spacing" textLength="125.8234" x="1135.59" y="497.3419">- &#25945;&#26448;&#12467;&#12531;&#12486;&#12531;&#12484;&#29983;&#25104;</text><text fill="#000000" font-family="Verdana" font-size="13" lengthAdjust="spacing" textLength="86.8233" x="1135.59" y="512.4747">- &#25512;&#34214;&#12525;&#12472;&#12483;&#12463;</text></g><g class="entity" data-qualified-name="GMN30" data-source-line="54" id="ent0031"><path d="M1024.09,681.1494 L1024.09,751.6806 L1183.9134,751.6806 L1183.9134,691.1494 L1173.9134,681.1494 L1024.09,681.1494" fill="#FFFFFF" style="stroke:#000000;stroke-width:1;"/><path d="M1173.9134,681.1494 L1173.9134,691.1494 L1183.9134,691.1494 L1173.9134,681.1494" fill="#FFFFFF" style="stroke:#000000;stroke-width:1;"/><text fill="#000000" font-family="Verdana" font-size="13" lengthAdjust="spacing" textLength="138.8234" x="1030.09" y="698.2163">- &#12518;&#12540;&#12470;&#12540;&#12503;&#12525;&#12501;&#12451;&#12540;&#12523;</text><text fill="#000000" font-family="Verdana" font-size="13" lengthAdjust="spacing" textLength="60.8233" x="1030.09" y="713.3491">- &#20250;&#35441;&#23653;&#27508;</text><text fill="#000000" font-family="Verdana" font-size="13" lengthAdjust="spacing" textLength="86.8233" x="1030.09" y="728.4819">- &#20998;&#26512;&#12524;&#12509;&#12540;&#12488;</text><text fill="#000000" font-family="Verdana" font-size="13" lengthAdjust="spacing" textLength="60.8233" x="1030.09" y="743.6147">- &#29983;&#25104;&#25945;&#26448;</text></g><!--link browser to approuter--><g class="link" data-entity-1="ent0003" data-entity-2="ent0006" data-link-type="dependency" data-source-line="35" id="lnk19"><path d="M207.01,142.1994 C201.9,151.9894 196.06,163.4094 191,173.8794 C172.8,211.5394 155.5357,250.4584 143.8557,277.2784" fill="none" id="browser-to-approuter" style="stroke:#000000;stroke-width:1;"/><polygon fill="#000000" points="141.46,282.7794,148.7208,276.125,143.4564,278.1952,141.3862,272.9308,141.46,282.7794" style="stroke:#000000;stroke-width:1;"/><text fill="#000000" font-family="Verdana" font-size="13" lengthAdjust="spacing" textLength="41.7485" x="192" y="186.9463">HTTPS</text></g><!--link browser to api--><g class="link" data-entity-1="ent0003" data-entity-2="ent0007" data-link-type="dependency" data-source-line="36" id="lnk20"><path d="M229.01,142.0994 C243.41,181.0394 269.1797,250.7116 281.6297,284.3916" fill="none" id="browser-to-api" style="stroke:#000000;stroke-width:1;"/><polygon fill="#000000" points="283.71,290.0194,284.3413,280.1908,281.9764,285.3295,276.8376,282.9646,283.71,290.0194" style="stroke:#000000;stroke-width:1;"/><text fill="#000000" font-family="Verdana" font-size="13" lengthAdjust="spacing" textLength="58.1382" x="247" y="186.9463">REST API</text></g><!--link approuter to actions--><g class="link" data-entity-1="ent0006" data-entity-2="ent0008" data-link-type="dependency" data-source-line="37" id="lnk21"><path d="M145.04,333.3794 C165.86,369.4994 201.3631,431.1215 219.3231,462.2715" fill="none" id="approuter-to-actions" style="stroke:#000000;stroke-width:1;"/><polygon fill="#000000" points="222.32,467.4694,221.2899,457.6745,219.8226,463.1378,214.3593,461.6705,222.32,467.4694" style="stroke:#000000;stroke-width:1;"/><text fill="#000000" font-family="Verdana" font-size="13" lengthAdjust="spacing" textLength="94.4785" x="189" y="391.2163">Server Actions</text></g><!--link api to vertexai--><g class="link" data-entity-1="ent0007" data-entity-2="ent0010" data-link-type="dependency" data-source-line="39" id="lnk22"><path d="M308.7,325.8194 C343.3,356.9194 412.9976,419.5585 453.2276,455.7185" fill="none" id="api-to-vertexai" style="stroke:#000000;stroke-width:1;"/><polygon fill="#000000" points="457.69,459.7294,453.6704,450.7381,453.9714,456.387,448.3225,456.6879,457.69,459.7294" style="stroke:#000000;stroke-width:1;"/><text fill="#000000" font-family="Verdana" font-size="13" lengthAdjust="spacing" textLength="52.0001" x="400" y="376.2163">&#20250;&#35441;&#29983;&#25104;</text><text fill="#000000" font-family="Verdana" font-size="13" lengthAdjust="spacing" textLength="26" x="413" y="391.3491">&#20998;&#26512;</text><text fill="#000000" font-family="Verdana" font-size="13" lengthAdjust="spacing" textLength="52.0001" x="400" y="406.4819">&#25945;&#26448;&#29983;&#25104;</text></g><!--link api to stt--><g class="link" data-entity-1="ent0007" data-entity-2="ent0011" data-link-type="dependency" data-source-line="40" id="lnk23"><path d="M335.31,321.2994 C370.17,331.2394 419.27,346.3194 461,363.1494 C512.06,383.7394 524.41,390.4594 572,418.1494 C598.44,433.5194 622.4181,449.9112 641.9281,463.8512" fill="none" id="api-to-stt" style="stroke:#000000;stroke-width:1;"/><polygon fill="#000000" points="646.81,467.3394,641.8126,458.8526,642.7418,464.4326,637.1617,465.3618,646.81,467.3394" style="stroke:#000000;stroke-width:1;"/><text fill="#000000" font-family="Verdana" font-size="13" lengthAdjust="spacing" textLength="97.1573" x="557" y="391.2163">&#38899;&#22768; &#8594; &#12486;&#12461;&#12473;&#12488;</text></g><!--link api to tts--><g class="link" data-entity-1="ent0007" data-entity-2="ent0012" data-link-type="dependency" data-source-line="41" id="lnk24"><path d="M335.32,310.6694 C406.65,314.3694 548.77,326.1394 663,363.1494 C713.12,379.3794 722.83,391.0394 768,418.1494 C794.04,433.7694 817.7522,450.1155 837.1022,463.9755" fill="none" id="api-to-tts" style="stroke:#000000;stroke-width:1;"/><polygon fill="#000000" points="841.98,467.4694,836.9925,458.9767,837.9152,464.5578,832.3341,465.4804,841.98,467.4694" style="stroke:#000000;stroke-width:1;"/><text fill="#000000" font-family="Verdana" font-size="13" lengthAdjust="spacing" textLength="97.1573" x="754" y="391.2163">&#12486;&#12461;&#12473;&#12488; &#8594; &#38899;&#22768;</text></g><!--link api to firestore--><g class="link" data-entity-1="ent0007" data-entity-2="ent0014" data-link-type="dependency" data-source-line="42" id="lnk25"><path d="M334.92,308.4294 C473.63,307.7494 890.14,314.5094 961,418.1494 C997.71,471.8444 999.98,544.6944 992.8188,604.8356 C989.2381,634.9063 983.2997,661.7997 978.1295,681.533 C977.4833,683.9996 976.849,686.3544 976.2328,688.5895 C976.1558,688.8689 977.6825,683.3647 977.6061,683.6403" fill="none" id="api-to-firestore" style="stroke:#000000;stroke-width:1;"/><polygon fill="#000000" points="976.0026,689.4221,982.2623,681.8184,977.3388,684.6039,974.5533,679.6805,976.0026,689.4221" style="stroke:#000000;stroke-width:1;"/><text fill="#000000" font-family="Verdana" font-size="13" lengthAdjust="spacing" textLength="78.0001" x="997" y="489.8463">&#12487;&#12540;&#12479;&#27704;&#32154;&#21270;</text></g><!--link actions to firestore--><g class="link" data-entity-1="ent0008" data-entity-2="ent0014" data-link-type="dependency" data-source-line="44" id="lnk26"><path d="M266.53,503.2694 C299.64,518.6694 351.47,540.4894 399,550.8494 C428.85,557.3494 925.44,563.2394 948,583.8494 C958.75,593.6619 965.42,606.6125 969.3672,620.5623 C970.354,624.0498 971.1706,627.5997 971.8383,631.1787 C972.1721,632.9681 972.4687,634.7649 972.7307,636.5647 C972.8617,637.4646 972.984,638.3652 973.098,639.2662 C973.155,639.7166 973.21,640.1672 973.2629,640.6177 C973.2893,640.8429 972.642,635.1061 972.6675,635.3313" fill="none" id="actions-to-firestore" style="stroke:#000000;stroke-width:1;"/><polygon fill="#000000" points="973.3407,641.2934,976.3056,631.9014,972.7797,636.325,968.3561,632.7991,973.3407,641.2934" style="stroke:#000000;stroke-width:1;"/><text fill="#000000" font-family="Verdana" font-size="13" lengthAdjust="spacing" textLength="65.0001" x="905" y="571.9163">&#12487;&#12540;&#12479;&#22793;&#26356;</text></g><!--link vertexai to GMN27--><g class="link" data-entity-1="ent0010" data-entity-2="ent0028" data-link-type="association" data-source-line="47" id="lnk29"><path d="M500.11,460.0394 C517.73,433.3294 549.62,392.7294 589.5,375.6494 C690.82,332.2494 982.62,336.0894 1085.5,375.6494 C1123.95,390.4294 1157.82,423.6394 1179.97,449.6594" fill="none" id="vertexai-GMN27" style="stroke:#000000;stroke-width:1;stroke-dasharray:7,7;"/></g><!--link firestore to GMN30--><g class="link" data-entity-1="ent0014" data-entity-2="ent0031" data-link-type="association" data-source-line="54" id="lnk32"><path d="M976.0949,716.4094 C976.2379,716.4094 976.381,716.4094 976.524,716.4094 C976.81,716.4094 977.0961,716.4094 977.3822,716.4094 C977.9543,716.4094 978.5264,716.4094 979.0985,716.4094 C980.2426,716.4094 981.3868,716.4094 982.5309,716.4094 C987.1075,716.4094 991.6837,716.4094 996.26,716.4094 C1005.4125,716.4094 1014.565,716.4094 1023.72,716.4094" fill="none" id="firestore-GMN30" style="stroke:#000000;stroke-width:1;stroke-dasharray:7,7;"/></g><?plantuml-src TLHRJnD157xVNp72YyQK2AH6V30XjOiyQ4XRVG4UXdQ0bMMcsPqYQdXmnnIynE05Y2XWv8uG8I1WGk9_SUo2_yApPxONI4oJxSpvldFcEz_PsKjoc8qoKdIfmor_nE55wj5HCa3p8qEUAF52IhZ28yrsElerCF9Yj2Wuup8h7xkCU2mlAHzoMGEbm0PfoPMs09BpX97MTikIZWHsEBSQVju-srhKwgrM9rfDQVKI5YH1T72aWvzQbRNweeEl4HhiHDlWkrRFj5gsh2A8eqECD65iKmShIDo7Cas4-YJlEg2BDAVRxJRxDdbg4TAhrInIrtHmsCSlPnZDIzBQGQwIUsnSjZpqIUlrA_rHze0d7ldCioOQ3agvebGWcHAFwyFEAt4uuOQTJ7VW2JLkjHvgcjDgImTxsCMHLkkW4alGOX6pG5adB3EY99a7khBC6sCUILNDzOqce7j8YLDwkasA7wEEYSVPdNdf21vZPWtunBcEkeI0OH7JM6StgFs1WtWFvXk53WpTjjlJruo13vWdsJXGGMKN6tMuGzfQaiHsgJziH8uXWqPQUatTR96n_712YaGEJ46IBsKTZw8HQdY8I-cVqwdL99htgxAtWheAL59GrfvEsabK5WK6g0zSs_6OBuN7a3XOtLMDlWzJzVlDEYKuoFMfCIfsbLFtiS-gsxiK_7QeYtiqBtupI29ngpuHSfFSoULwiXTG1-APT3P7O5PMdOoW6GaGpi_BigAqY55r4YX_JkRFDlTEFoo5KzDzl39L3XVXFvpv62vCcsWj2wo5XBzB-vNbNVAx_8xWhTd1spHLOu71m6g4a6lIQgowUH4t7a6uUtnwE5zvFGjAunx-owsil0W_7LWM5n8-3ixGi2HYiF4LISIjcPTl0xEETR1kxZ4ICBm9oDdaLkNLZ6aU4TE_3lQHNSRdyzWEnDzidCskQRKJrLGAlXCMumKIYRaegQRU7AdMKCaXNeQvg8AQqS4oRhyroAxihOOx1nWmkhJQrch1VCmmREGOfRNJ_m40?></g></svg>